<svg xmlns:xlink="http://www.w3.org/1999/xlink" width="539.938" xmlns="http://www.w3.org/2000/svg" height="773.51" id="screenshot-0ac3e4cf-fadb-8022-8002-d3156cbcde9b" viewBox="0 0 539.938 773.51" style="-webkit-print-color-adjust: exact;" fill="none" version="1.1"><g id="shape-0ac3e4cf-fadb-8022-8002-d3156cbcde9b" rx="0" ry="0"><g id="shape-0ac3e4cf-fadb-8022-8002-d3142392c349" rx="0" ry="0"><g id="shape-5a19d687-450d-8026-8002-d322e2560d90"><g class="fills" id="fills-5a19d687-450d-8026-8002-d322e2560d90"><path rx="0" ry="0" d="M326.513,365.039C472.022,401.318,505.998,481.450,485.279,564.551C464.559,647.652,396.938,702.453,251.432,666.174C55.126,617.230,53.148,625.161,92.666,466.662C137.243,287.875,130.207,316.094,326.513,365.039ZM189.379,381.520L138.559,585.349C138.559,585.349,292.848,639.145,338.025,612.090C379.359,587.337,402.544,504.593,370.124,455.324C338.452,407.193,189.379,381.520,189.379,381.520Z" style="fill: rgb(247, 148, 19); fill-opacity: 1;"/></g></g><g id="shape-0ac3e4cf-fadb-8022-8002-d3142392c34a"><g class="fills" id="fills-0ac3e4cf-fadb-8022-8002-d3142392c34a"><path rx="0" ry="0" d="M299.086,285.273L342.799,296.172L236.041,724.357L192.327,713.458L250.725,479.237L299.086,285.273Z" style="fill: rgb(247, 148, 19); fill-opacity: 1;"/></g></g></g><g id="shape-0ac3e4cf-fadb-8022-8002-d31423930601" rx="0" ry="0"><g id="shape-0ac3e4cf-fadb-8022-8002-d31423930602"><g class="fills" id="fills-0ac3e4cf-fadb-8022-8002-d31423930602"><path rx="0" ry="0" d="M204.975,13.733L276.748,31.628L126.855,632.819L55.082,614.924L204.975,13.733Z" style="fill: rgb(247, 148, 19); fill-opacity: 1;"/></g></g><g id="shape-0ac3e4cf-fadb-8022-8002-d31423930603"><g class="fills" id="fills-0ac3e4cf-fadb-8022-8002-d31423930603"><path rx="0" ry="0" d="M7.436,571.366C7.436,571.366,61.240,583.114,81.166,581.413L73.442,619.501L1.669,601.606L7.436,571.366Z" style="fill: rgb(247, 148, 19); fill-opacity: 1;"/></g></g><g id="shape-0ac3e4cf-fadb-8022-8002-d31423930604"><g class="fills" id="fills-0ac3e4cf-fadb-8022-8002-d31423930604"><path rx="0" ry="0" d="M142.458,29.824C142.458,29.824,195.479,44.711,212.274,55.568L223.336,18.311L151.563,0.416L142.458,29.824Z" style="fill: rgb(247, 148, 19); fill-opacity: 1;"/></g></g></g></g></svg>