<svg xmlns:xlink="http://www.w3.org/1999/xlink" width="1092" xmlns="http://www.w3.org/2000/svg" height="1080" id="screenshot-0ac3e4cf-fadb-8022-8002-d3163605de92" viewBox="0 0 1092 1080" style="-webkit-print-color-adjust: exact;" fill="none" version="1.1"><g id="shape-0ac3e4cf-fadb-8022-8002-d3163605de92" rx="0" ry="0"><g id="shape-0ac3e4cf-fadb-8022-8002-d30bf5fd0ae5"><g class="fills" id="fills-0ac3e4cf-fadb-8022-8002-d30bf5fd0ae5"><ellipse rx="546" ry="540" cx="546" cy="540" transform="matrix(1.000000, 0.000000, 0.000000, 1.000000, 0.000000, 0.000000)" style="fill: rgb(247, 148, 19); fill-opacity: 1;"/></g></g><g id="shape-0e8d126b-0040-8065-8002-d3272b983feb" rx="0" ry="0"><g id="shape-0e8d126b-0040-8065-8002-d3272b983fec" rx="0" ry="0"><g id="shape-0e8d126b-0040-8065-8002-d3272b983fee" rx="0" ry="0"><g id="shape-0e8d126b-0040-8065-8002-d3272b983fef"><g class="fills" id="fills-0e8d126b-0040-8065-8002-d3272b983fef"><path rx="0" ry="0" d="M602.513,518.039C748.022,554.318,781.998,634.450,761.279,717.551C740.559,800.652,672.938,855.453,527.432,819.174C331.126,770.230,329.148,778.161,368.666,619.662C413.243,440.875,406.207,469.094,602.513,518.039Z" style="fill: rgb(255, 255, 255); fill-opacity: 1;"/></g></g><g id="shape-0e8d126b-0040-8065-8002-d3272b983ff0"><g class="fills" id="fills-0e8d126b-0040-8065-8002-d3272b983ff0"><path rx="0" ry="0" d="M465.379,534.520C465.379,534.520,614.452,560.193,646.124,608.324C678.544,657.593,655.359,740.337,614.025,765.090C568.848,792.145,414.559,738.349,414.559,738.349L465.379,534.520Z" style="fill: rgb(247, 148, 19); fill-opacity: 1;"/></g></g></g><g id="shape-0e8d126b-0040-8065-8002-d3272b983fed"><g class="fills" id="fills-0e8d126b-0040-8065-8002-d3272b983fed"><path rx="0" ry="0" d="M575.086,438.273L618.799,449.172L512.041,877.357L468.327,866.458L526.725,632.237L575.086,438.273Z" style="fill: rgb(255, 255, 255); fill-opacity: 1;"/></g></g></g><g id="shape-0e8d126b-0040-8065-8002-d3272b983ff1" rx="0" ry="0"><g id="shape-0e8d126b-0040-8065-8002-d3272b983ff2"><g class="fills" id="fills-0e8d126b-0040-8065-8002-d3272b983ff2"><path rx="0" ry="0" d="M480.975,166.733L552.748,184.628L402.855,785.819L331.082,767.924L480.975,166.733Z" style="fill: rgb(255, 255, 255); fill-opacity: 1;"/></g></g><g id="shape-0e8d126b-0040-8065-8002-d3272b983ff3"><g class="fills" id="fills-0e8d126b-0040-8065-8002-d3272b983ff3"><path rx="0" ry="0" d="M283.436,724.366C283.436,724.366,337.240,736.114,357.166,734.413L349.442,772.501L277.669,754.606L283.436,724.366Z" style="fill: rgb(255, 255, 255); fill-opacity: 1;"/></g></g><g id="shape-0e8d126b-0040-8065-8002-d3272b983ff4"><g class="fills" id="fills-0e8d126b-0040-8065-8002-d3272b983ff4"><path rx="0" ry="0" d="M418.458,182.824C418.458,182.824,471.479,197.711,488.274,208.568L499.336,171.311L427.563,153.416L418.458,182.824Z" style="fill: rgb(255, 255, 255); fill-opacity: 1;"/></g></g></g></g></g></svg>
